<svg width="32" height="32" viewBox="0 0 32 32" fill="none" xmlns="http://www.w3.org/2000/svg">
<path d="M30.7429 11.4857C29.9397 9.58468 28.7753 7.85753 27.3143 6.40001C25.8568 4.93897 24.1296 3.7746 22.2286 2.97144C20.2536 2.13572 18.1607 1.71429 16 1.71429C13.8393 1.71429 11.7464 2.13572 9.77143 2.97144C7.87039 3.7746 6.14324 4.93897 4.68571 6.40001C3.22467 7.85753 2.0603 9.58468 1.25714 11.4857C0.421429 13.4607 0 15.5536 0 17.7143C0 22.4536 2.08214 26.9179 5.71071 29.9679L5.77143 30.0179C5.97857 30.1893 6.23929 30.2857 6.50714 30.2857H25.4964C25.7643 30.2857 26.025 30.1893 26.2321 30.0179L26.2929 29.9679C29.9179 26.9179 32 22.4536 32 17.7143C32 15.5536 31.575 13.4607 30.7429 11.4857ZM14.9286 6.00001C14.9286 5.84287 15.0571 5.71429 15.2143 5.71429H16.7857C16.9429 5.71429 17.0714 5.84287 17.0714 6.00001V8.85715C17.0714 9.01429 16.9429 9.14287 16.7857 9.14287H15.2143C15.0571 9.14287 14.9286 9.01429 14.9286 8.85715V6.00001ZM7.35714 18.5C7.35714 18.6572 7.22857 18.7857 7.07143 18.7857H4.21429C4.05714 18.7857 3.92857 18.6572 3.92857 18.5V16.9286C3.92857 16.7714 4.05714 16.6429 4.21429 16.6429H7.07143C7.22857 16.6429 7.35714 16.7714 7.35714 16.9286V18.5ZM10.5964 11.1964L9.48571 12.3072C9.43202 12.3603 9.3595 12.3902 9.28393 12.3902C9.20836 12.3902 9.13584 12.3603 9.08214 12.3072L7.06072 10.2857C7.00754 10.232 6.97772 10.1595 6.97772 10.0839C6.97772 10.0084 7.00754 9.93585 7.06072 9.88215L8.17143 8.77144C8.28214 8.66072 8.46429 8.66072 8.575 8.77144L10.5964 10.7929C10.7071 10.9036 10.7071 11.0857 10.5964 11.1964ZM20.9929 14.1822L17.975 17.2C18.1536 17.8679 17.9821 18.6072 17.4571 19.1322C17.2715 19.3181 17.0511 19.4656 16.8084 19.5663C16.5657 19.6669 16.3056 19.7188 16.0429 19.7188C15.7801 19.7188 15.52 19.6669 15.2773 19.5663C15.0346 19.4656 14.8142 19.3181 14.6286 19.1322C14.4426 18.9466 14.2951 18.7261 14.1944 18.4834C14.0938 18.2407 14.042 17.9806 14.042 17.7179C14.042 17.4551 14.0938 17.195 14.1944 16.9523C14.2951 16.7096 14.4426 16.4892 14.6286 16.3036C14.8766 16.0548 15.1858 15.876 15.5251 15.785C15.8643 15.6941 16.2216 15.6944 16.5607 15.7857L19.5786 12.7679C19.6893 12.6572 19.8714 12.6572 19.9821 12.7679L20.9929 13.7786C21.1036 13.8893 21.1036 14.0679 20.9929 14.1822ZM22.5286 12.3107L21.4179 11.2C21.3647 11.1463 21.3349 11.0738 21.3349 10.9982C21.3349 10.9227 21.3647 10.8501 21.4179 10.7964L23.4393 8.77501C23.55 8.6643 23.7321 8.6643 23.8429 8.77501L24.9536 9.88572C25.0643 9.99644 25.0643 10.1786 24.9536 10.2893L22.9321 12.3107C22.8784 12.3639 22.8059 12.3937 22.7304 12.3937C22.6548 12.3937 22.5823 12.3639 22.5286 12.3107ZM27.9286 18.5C27.9286 18.6572 27.8 18.7857 27.6429 18.7857H24.7857C24.6286 18.7857 24.5 18.6572 24.5 18.5V16.9286C24.5 16.7714 24.6286 16.6429 24.7857 16.6429H27.6429C27.8 16.6429 27.9286 16.7714 27.9286 16.9286V18.5Z" fill="black"/>
</svg>
