<svg width="32" height="32" viewBox="0 0 32 32" fill="none" xmlns="http://www.w3.org/2000/svg">
<path d="M6.69292 14.9561C8.03026 16.7587 9.65425 18.6281 11.4983 20.4707C18.3729 27.3467 25.6103 31.1774 28.3783 28.4094C30.0263 26.7601 29.4076 23.7854 27.2516 20.0934C28.0312 17.9475 28.1825 15.6237 27.6876 13.3948C27.1927 11.1659 26.0723 9.12448 24.4578 7.51011C22.8433 5.89575 20.8017 4.77547 18.5728 4.2808C16.3439 3.78613 14.0201 3.93759 11.8743 4.71741C8.18359 2.56141 5.20759 1.94274 3.55959 3.59074C1.96225 5.18941 2.56359 8.27607 4.67959 11.9241C4.06962 13.6146 3.84703 15.4206 4.02827 17.2086C4.2095 18.9967 4.78992 20.7213 5.7267 22.2551C6.66348 23.7888 7.9327 25.0927 9.44072 26.0704C10.9487 27.0481 12.657 27.6748 14.4396 27.9041C14.7906 27.9486 15.1449 27.8519 15.4245 27.6353C15.7042 27.4186 15.8864 27.0997 15.9309 26.7487C15.9755 26.3978 15.8788 26.0435 15.6621 25.7638C15.4455 25.4841 15.1266 25.302 14.7756 25.2574C12.3465 24.9436 10.138 23.6878 8.62604 21.7609C7.11412 19.834 6.41986 17.3901 6.69292 14.9561ZM7.68892 11.6934C8.36638 10.3938 9.34037 9.27202 10.532 8.41887C11.7237 7.56571 13.0995 7.00517 14.548 6.78264C15.9966 6.5601 17.4772 6.68182 18.87 7.13794C20.2628 7.59406 21.5286 8.37177 22.5649 9.40808C23.6012 10.4444 24.3789 11.7102 24.8351 13.103C25.2912 14.4958 25.4129 15.9764 25.1904 17.425C24.9678 18.8735 24.4073 20.2493 23.5541 21.441C22.701 22.6326 21.5792 23.6066 20.2796 24.2841C18.0823 22.8534 15.6836 20.8854 13.3849 18.5867C11.0863 16.2881 9.11825 13.8907 7.68892 11.6934ZM22.9209 25.7841C24.0162 25.0051 24.9731 24.0478 25.7516 22.9521C26.6516 24.8494 26.8489 26.1667 26.4929 26.5241C26.1543 26.8614 24.8476 26.6974 22.9209 25.7841ZM9.01692 6.21741C7.92225 6.99719 6.96553 7.95437 6.18625 9.04941C5.27292 7.12274 5.10759 5.81474 5.44492 5.47607C5.80225 5.12007 7.11959 5.31607 9.01826 6.21741H9.01692Z" fill="#6B1211"/>
</svg>
