<svg width="16" height="16" viewBox="0 0 16 16" fill="none" xmlns="http://www.w3.org/2000/svg">
<path d="M13.4479 7.24085C13.0894 6.45946 12.5682 5.75812 11.917 5.18072L11.3797 4.70324C11.3614 4.68747 11.3395 4.67628 11.3157 4.67065C11.292 4.66502 11.2672 4.66512 11.2435 4.67095C11.2197 4.67678 11.1979 4.68815 11.1798 4.70407C11.1617 4.71999 11.1479 4.73997 11.1396 4.76225L10.8996 5.42929C10.75 5.84776 10.4748 6.27516 10.0852 6.69542C10.0594 6.72224 10.0298 6.72939 10.0095 6.73118C9.9892 6.73297 9.9578 6.72939 9.9301 6.70436C9.90425 6.6829 9.89132 6.65071 9.89317 6.61852C9.9615 5.54196 9.62911 4.32769 8.90155 3.00613C8.29957 1.90811 7.46306 1.05151 6.41789 0.45421L5.65525 0.0196502C5.55554 -0.0375757 5.42812 0.0375333 5.43366 0.150197L5.47428 1.00859C5.50198 1.59515 5.43181 2.11376 5.26562 2.54475C5.0625 3.0723 4.77073 3.56229 4.39772 4.00222C4.13814 4.30795 3.84392 4.58449 3.52059 4.82663C2.7419 5.40634 2.10872 6.14915 1.66847 6.99943C1.2293 7.85713 1.00054 8.80144 1 9.75879C1 10.6029 1.17173 11.4201 1.51151 12.1909C1.83958 12.933 2.31303 13.6065 2.90568 14.1741C3.50397 14.7464 4.19829 15.197 4.97201 15.51C5.77343 15.8355 6.62286 16 7.49999 16C8.37712 16 9.22655 15.8355 10.028 15.5118C10.7998 15.2007 11.5016 14.7469 12.0943 14.1759C12.6926 13.6037 13.1616 12.9348 13.4885 12.1927C13.8277 11.424 14.0018 10.5965 14 9.76058C14 8.88789 13.8153 8.04023 13.4479 7.24085Z" fill="black"/>
</svg>
