<svg width="32" height="32" viewBox="0 0 32 32" fill="none" xmlns="http://www.w3.org/2000/svg">
<path d="M16.8608 7.46426H15.143C14.9858 7.46426 14.8572 7.59283 14.8572 7.74997V17.5821C14.8572 17.675 14.9001 17.7607 14.9751 17.8143L20.8787 22.125C21.0072 22.2178 21.1858 22.1928 21.2787 22.0643L22.3001 20.6714C22.3965 20.5393 22.368 20.3607 22.2394 20.2714L17.1465 16.5893V7.74997C17.1465 7.59283 17.018 7.46426 16.8608 7.46426ZM24.7108 10.15L30.3108 11.5178C30.4894 11.5607 30.6644 11.425 30.6644 11.2428L30.693 5.47497C30.693 5.23568 30.418 5.09997 30.2322 5.24997L24.6037 9.6464C24.5611 9.67931 24.5287 9.72355 24.5102 9.77405C24.4917 9.82455 24.4878 9.87924 24.499 9.93185C24.5102 9.98445 24.536 10.0328 24.5735 10.0714C24.611 10.11 24.6586 10.1372 24.7108 10.15ZM30.7001 20.9035L28.6751 20.2071C28.6045 20.1829 28.5272 20.1873 28.4598 20.2193C28.3924 20.2514 28.3402 20.3085 28.3144 20.3785C28.2465 20.5607 28.1751 20.7393 28.1001 20.9178C27.4644 22.4214 26.5537 23.775 25.3894 24.9357C24.238 26.0906 22.8735 27.0112 21.3715 27.6464C19.8155 28.3043 18.143 28.6419 16.4537 28.6393C14.7465 28.6393 13.093 28.3071 11.5358 27.6464C10.0338 27.0112 8.66931 26.0906 7.51795 24.9357C6.35724 23.775 5.44652 22.4214 4.80724 20.9178C4.15301 19.361 3.81783 17.6887 3.82152 16C3.82152 14.2928 4.15367 12.6357 4.81438 11.0785C5.4501 9.57497 6.36081 8.2214 7.5251 7.06068C8.67646 5.90575 10.041 4.98517 11.543 4.34997C13.093 3.68926 14.7501 3.35711 16.4572 3.35711C18.1644 3.35711 19.818 3.68926 21.3751 4.34997C22.8771 4.98517 24.2416 5.90575 25.393 7.06068C25.7572 7.42854 26.1001 7.81068 26.4144 8.21426L28.5501 6.54283C25.7394 2.94997 21.3644 0.639255 16.4501 0.642826C7.89295 0.646398 1.02152 7.5964 1.10724 16.1571C1.19295 24.5678 8.03224 31.3571 16.4572 31.3571C23.0822 31.3571 28.7251 27.1571 30.8751 21.275C30.9287 21.125 30.8501 20.9571 30.7001 20.9035Z" fill="black"/>
</svg>
