<svg width="32" height="32" viewBox="0 0 32 32" fill="none" xmlns="http://www.w3.org/2000/svg">
<path d="M6.6939 14.956C8.03123 16.7587 9.65523 18.628 11.4992 20.4707C18.3739 27.3467 25.6112 31.1773 28.3792 28.4093C30.0272 26.76 29.4086 23.7853 27.2526 20.0933C28.0322 17.9474 28.1835 15.6236 27.6886 13.3947C27.1937 11.1659 26.0733 9.12441 24.4588 7.51005C22.8443 5.89569 20.8027 4.77541 18.5738 4.28074C16.3449 3.78607 14.0211 3.93753 11.8752 4.71734C8.18456 2.56134 5.20856 1.94268 3.56056 3.59068C1.96323 5.18934 2.56457 8.27601 4.68056 11.924C4.07059 13.6146 3.84801 15.4205 4.02924 17.2086C4.21048 18.9967 4.7909 20.7212 5.72768 22.255C6.66446 23.7888 7.93368 25.0926 9.44169 26.0704C10.9497 27.0481 12.658 27.6747 14.4406 27.904C14.7915 27.9486 15.1458 27.8519 15.4255 27.6352C15.7052 27.4185 15.8873 27.0996 15.9319 26.7487C15.9765 26.3977 15.8798 26.0434 15.6631 25.7637C15.4464 25.4841 15.1275 25.3019 14.7766 25.2573C12.3475 24.9435 10.1389 23.6878 8.62702 21.7608C7.11509 19.8339 6.42084 17.39 6.6939 14.956ZM7.6899 11.6933C8.36736 10.3938 9.34134 9.27196 10.533 8.41881C11.7246 7.56565 13.1004 7.00511 14.549 6.78258C15.9976 6.56004 17.4782 6.68176 18.871 7.13788C20.2638 7.594 21.5296 8.37171 22.5659 9.40802C23.6022 10.4443 24.3799 11.7101 24.836 13.1029C25.2922 14.4957 25.4139 15.9763 25.1913 17.4249C24.9688 18.8735 24.4083 20.2493 23.5551 21.4409C22.7019 22.6326 21.5802 23.6066 20.2806 24.284C18.0832 22.8533 15.6846 20.8853 13.3859 18.5867C11.0872 16.288 9.11923 13.8907 7.6899 11.6933ZM22.9219 25.784C24.0172 25.005 24.9741 24.0477 25.7526 22.952C26.6526 24.8493 26.8499 26.1667 26.4939 26.524C26.1552 26.8613 24.8486 26.6973 22.9219 25.784ZM9.0179 6.21734C7.92323 6.99713 6.9665 7.9543 6.18723 9.04934C5.2739 7.12268 5.10856 5.81468 5.4459 5.47601C5.80323 5.12001 7.12057 5.31601 9.01923 6.21734H9.0179Z" fill="#275D9C"/>
</svg>
