<svg width="32" height="32" viewBox="0 0 32 32" fill="none" xmlns="http://www.w3.org/2000/svg">
<path d="M14 5.96429C14 6.49473 14.2107 7.00344 14.5858 7.37851C14.9609 7.75358 15.4696 7.96429 16 7.96429C16.5304 7.96429 17.0391 7.75358 17.4142 7.37851C17.7893 7.00344 18 6.49473 18 5.96429C18 5.43386 17.7893 4.92515 17.4142 4.55008C17.0391 4.17501 16.5304 3.96429 16 3.96429C15.4696 3.96429 14.9609 4.17501 14.5858 4.55008C14.2107 4.92515 14 5.43386 14 5.96429ZM14 15.9643C14 16.4947 14.2107 17.0034 14.5858 17.3785C14.9609 17.7536 15.4696 17.9643 16 17.9643C16.5304 17.9643 17.0391 17.7536 17.4142 17.3785C17.7893 17.0034 18 16.4947 18 15.9643C18 15.4339 17.7893 14.9252 17.4142 14.5501C17.0391 14.175 16.5304 13.9643 16 13.9643C15.4696 13.9643 14.9609 14.175 14.5858 14.5501C14.2107 14.9252 14 15.4339 14 15.9643ZM14 25.9643C14 26.4947 14.2107 27.0034 14.5858 27.3785C14.9609 27.7536 15.4696 27.9643 16 27.9643C16.5304 27.9643 17.0391 27.7536 17.4142 27.3785C17.7893 27.0034 18 26.4947 18 25.9643C18 25.4339 17.7893 24.9252 17.4142 24.5501C17.0391 24.175 16.5304 23.9643 16 23.9643C15.4696 23.9643 14.9609 24.175 14.5858 24.5501C14.2107 24.9252 14 25.4339 14 25.9643Z" fill="black"/>
</svg>
