<svg width="32" height="32" viewBox="0 0 32 32" fill="none" xmlns="http://www.w3.org/2000/svg">
<path d="M28.8572 11.7857C29.0143 11.7857 29.1429 11.6571 29.1429 11.5V9.35712C29.1429 9.19997 29.0143 9.0714 28.8572 9.0714H23V3.14283C23 2.98569 22.8715 2.85712 22.7143 2.85712H20.4286C20.2715 2.85712 20.1429 2.98569 20.1429 3.14283V9.0714H12V3.14283C12 2.98569 11.8715 2.85712 11.7143 2.85712H9.42861C9.27146 2.85712 9.14289 2.98569 9.14289 3.14283V9.0714H3.14289C2.98575 9.0714 2.85718 9.19997 2.85718 9.35712V11.5C2.85718 11.6571 2.98575 11.7857 3.14289 11.7857H9.14289V20.2143H3.14289C2.98575 20.2143 2.85718 20.3428 2.85718 20.5V22.6428C2.85718 22.8 2.98575 22.9285 3.14289 22.9285H9.14289V28.8571C9.14289 29.0143 9.27146 29.1428 9.42861 29.1428H11.7143C11.8715 29.1428 12 29.0143 12 28.8571V22.9285H20.1429V28.8571C20.1429 29.0143 20.2715 29.1428 20.4286 29.1428H22.7143C22.8715 29.1428 23 29.0143 23 28.8571V22.9285H28.8572C29.0143 22.9285 29.1429 22.8 29.1429 22.6428V20.5C29.1429 20.3428 29.0143 20.2143 28.8572 20.2143H23V11.7857H28.8572ZM20.1429 20.2143H12V11.7857H20.1429V20.2143Z" fill="black"/>
</svg>
