<svg width="32" height="32" viewBox="0 0 32 32" fill="none" xmlns="http://www.w3.org/2000/svg">
<g clip-path="url(#clip0_361_1817)">
<path d="M16.0179 11.6643C14.95 11.6643 13.95 12.0785 13.1929 12.8357C12.4393 13.5928 12.0214 14.5928 12.0214 15.6607C12.0214 16.7285 12.4393 17.7285 13.1929 18.4857C13.95 19.2393 14.95 19.6571 16.0179 19.6571C17.0857 19.6571 18.0857 19.2393 18.8429 18.4857C19.5964 17.7285 20.0143 16.7285 20.0143 15.6607C20.0143 14.5928 19.5964 13.5928 18.8429 12.8357C18.4731 12.463 18.0329 12.1676 17.5479 11.9665C17.063 11.7654 16.5429 11.6627 16.0179 11.6643ZM30.7429 20.075L28.4072 18.0785C28.5179 17.4 28.575 16.7071 28.575 16.0178C28.575 15.3285 28.5179 14.6321 28.4072 13.9571L30.7429 11.9607C30.9193 11.8096 31.0456 11.6085 31.1049 11.3839C31.1643 11.1593 31.1538 10.922 31.075 10.7035L31.0429 10.6107C30.4001 8.81316 29.4369 7.14696 28.2 5.69283L28.1357 5.61783C27.9855 5.44123 27.7854 5.31428 27.5616 5.25372C27.3378 5.19315 27.1009 5.20181 26.8822 5.27855L23.9822 6.31069C22.9107 5.43212 21.7179 4.73926 20.425 4.25712L19.8643 1.22498C19.822 0.996555 19.7112 0.786413 19.5466 0.622468C19.382 0.458523 19.1715 0.348535 18.9429 0.307118L18.8464 0.289261C16.9893 -0.046453 15.0322 -0.046453 13.175 0.289261L13.0786 0.307118C12.85 0.348535 12.6394 0.458523 12.4749 0.622468C12.3103 0.786413 12.1995 0.996555 12.1572 1.22498L11.5929 4.2714C10.3123 4.75739 9.11928 5.44857 8.06073 6.31783L5.1393 5.27855C4.92061 5.2012 4.68356 5.19223 4.45964 5.25283C4.23573 5.31344 4.03556 5.44074 3.88573 5.61783L3.82145 5.69283C2.58678 7.14851 1.62384 8.81429 0.978589 10.6107L0.946446 10.7035C0.785732 11.15 0.917875 11.65 1.27859 11.9607L3.64287 13.9785C3.53216 14.65 3.47859 15.3357 3.47859 16.0143C3.47859 16.7 3.53216 17.3857 3.64287 18.05L1.28573 20.0678C1.10929 20.2189 0.983005 20.4201 0.923674 20.6446C0.864344 20.8692 0.874778 21.1065 0.953589 21.325L0.985731 21.4178C1.63216 23.2143 2.58573 24.875 3.82859 26.3357L3.89287 26.4107C4.04307 26.5873 4.24325 26.7142 4.46703 26.7748C4.6908 26.8354 4.92768 26.8267 5.14645 26.75L8.06787 25.7107C9.13216 26.5857 10.3179 27.2785 11.6 27.7571L12.1643 30.8035C12.2066 31.032 12.3174 31.2421 12.482 31.4061C12.6466 31.57 12.8571 31.68 13.0857 31.7214L13.1822 31.7393C15.0576 32.0768 16.9782 32.0768 18.8536 31.7393L18.95 31.7214C19.1786 31.68 19.3892 31.57 19.5538 31.4061C19.7183 31.2421 19.8291 31.032 19.8714 30.8035L20.4322 27.7714C21.725 27.2857 22.9179 26.5964 23.9893 25.7178L26.8893 26.75C27.108 26.8273 27.3451 26.8363 27.569 26.7757C27.7929 26.7151 27.993 26.5878 28.1429 26.4107L28.2072 26.3357C29.45 24.8678 30.4036 23.2143 31.05 21.4178L31.0822 21.325C31.2357 20.8821 31.1036 20.3857 30.7429 20.075ZM16.0179 21.9393C12.55 21.9393 9.7393 19.1285 9.7393 15.6607C9.7393 12.1928 12.55 9.38212 16.0179 9.38212C19.4857 9.38212 22.2964 12.1928 22.2964 15.6607C22.2964 19.1285 19.4857 21.9393 16.0179 21.9393Z" fill="black"/>
</g>
<defs>
<clipPath id="clip0_361_1817">
<rect width="32" height="32" fill="white"/>
</clipPath>
</defs>
</svg>
